<?xml version="1.0" standalone="no"?>
<!DOCTYPE svg PUBLIC "-//W3C//DTD SVG 1.1//EN" "http://www.w3.org/Graphics/SVG/1.1/DTD/svg11.dtd" >
<svg xmlns="http://www.w3.org/2000/svg">
<metadata>Generated by IcoMoon</metadata>
<defs>
<font id="BanBinf-Icons" horiz-adv-x="1024">
<font-face units-per-em="1024" ascent="960" descent="-64" />
<missing-glyph horiz-adv-x="1024" />
<glyph unicode="&#x20;" horiz-adv-x="512" d="" />
<glyph unicode="&#xe900;" glyph-name="angle-down" d="M280.781 639.488l-75.981-75.776 307.2-307.2 307.2 307.2-75.981 75.981-231.219-231.424-231.219 231.219z" />
<glyph unicode="&#xe901;" glyph-name="angle-left" d="M703.488 679.219l-75.776 75.981-307.2-307.2 307.2-307.2 75.981 75.981-231.424 231.219 231.219 231.219z" />
<glyph unicode="&#xe902;" glyph-name="angle-right" d="M320.512 216.781l75.981-75.981 307.2 307.2-307.2 307.2-75.981-75.981 231.219-231.219-231.219-231.219z" />
<glyph unicode="&#xe903;" glyph-name="angle-up" d="M743.219 256.512l75.981 75.981-307.2 307.2-307.2-307.2 75.981-75.981 231.219 231.219 231.219-231.219z" />
<glyph unicode="&#xe904;" glyph-name="arrows" d="M512 862.72c-6.554 0-12.902-2.662-17.408-7.168l-116.531-116.531c-9.626-9.626-9.626-25.19 0-34.816 4.71-4.71 10.854-7.168 17.408-7.168h75.162v-124.314c0-22.938 18.637-41.37 41.37-41.37 22.938 0 41.37 18.637 41.37 41.37v124.314h75.162c21.914 0 32.973 26.624 17.408 42.189l-116.531 116.326c-4.506 4.506-10.854 7.168-17.408 7.168zM234.291 588.902c-4.915-0.819-9.626-3.277-13.107-6.758l-116.736-116.736c-9.626-9.626-9.626-25.19 0-34.816l116.531-116.531c9.626-9.626 25.19-9.626 34.816 0 4.71 4.71 7.168 10.854 7.168 17.408v75.162h124.314c22.938 0 41.37 18.637 41.37 41.37 0 22.938-18.637 41.37-41.37 41.37h-124.314v75.162c0 13.722-11.059 24.781-24.576 24.781-1.229 0-2.662-0.205-4.096-0.41zM789.709 588.902c-13.517 2.253-26.214-6.758-28.467-20.070-0.205-1.434-0.41-2.867-0.41-4.301v-75.162h-124.314c-22.938 0-41.37-18.637-41.37-41.37 0-22.938 18.637-41.37 41.37-41.37h124.314v-75.162c0-21.914 26.624-32.973 42.189-17.408l116.531 116.531c9.626 9.626 9.626 25.19 0 34.816l-116.531 116.531c-3.686 3.686-8.192 6.144-13.312 6.963zM511.386 365.67c-22.938-0.41-41.165-19.251-40.755-41.984v-124.314h-75.162c-13.722 0-24.576-11.059-24.576-24.576 0-6.554 2.662-12.902 7.168-17.408l116.531-116.531c9.626-9.626 25.19-9.626 34.816 0l116.531 116.531c9.626 9.626 9.626 25.395 0 35.021-4.71 4.506-10.854 7.168-17.408 7.168h-75.162v124.314c0.41 22.938-18.022 41.779-40.96 41.984-0.205-0.205-0.614-0.205-1.024-0.205z" />
<glyph unicode="&#xe905;" glyph-name="arrow-to-bottom" d="M473.702 832c-21.299 0-38.502-17.203-38.502-38.502v-307.2h-134.349c-10.65 0-19.251-8.602-19.251-19.251 0-5.734 2.458-11.059 6.758-14.746l197.222-186.163c14.746-13.926 37.683-13.926 52.634 0l0.41 0.41c0.205 0.205 0.205 0.205 0.41 0.41l196.198 185.139c0.41 0.41 0.819 0.614 1.024 1.024l0.205 0.205c7.578 7.373 7.782 19.456 0.41 27.238-3.686 3.686-8.602 5.939-13.926 5.939h-134.349v307.2c0 21.299-17.203 38.502-38.502 38.502 0.41-0.205-76.595-0.205-76.39-0.205zM166.502 140.8c-21.299 0-38.502-17.203-38.502-38.502s17.203-38.502 38.502-38.502h691.2c21.299 0 38.502 17.203 38.502 38.502s-17.203 38.502-38.502 38.502c0 0-691.405 0-691.2 0z" />
<glyph unicode="&#xe906;" glyph-name="at-circle" d="M512 832c-212.173 0-384-171.827-384-384s171.827-384 384-384 384 171.827 384 384-171.827 384-384 384zM512 755.2c169.37 0 307.2-137.83 307.2-307.2v-38.502c0-63.488-51.61-115.302-115.302-115.302-33.997 0.205-66.15 15.36-87.654 41.574-28.262-26.624-65.536-41.37-104.243-41.574-84.787 0-153.6 68.813-153.6 153.6s68.813 153.6 153.6 153.6 153.6-68.813 153.6-153.6v-38.502c0-21.094 17.203-38.502 38.502-38.502 21.094 0 38.502 17.203 38.502 38.502v38.707c0 126.976-103.424 230.4-230.4 230.4s-230.605-103.424-230.605-230.4 103.424-230.4 230.4-230.4h38.502c21.299 0 38.298-17.203 38.298-38.502 0-21.094-17.203-38.298-38.298-38.298h-38.502c-169.37 0-307.2 137.83-307.2 307.2s137.83 307.2 307.2 307.2zM512 524.8c-42.394 0-76.8-34.406-76.8-76.8s34.406-76.8 76.8-76.8 76.8 34.406 76.8 76.8-34.406 76.8-76.8 76.8v0z" />
<glyph unicode="&#xe907;" glyph-name="calendar" d="M298.598 827.29c-23.552 0-42.598-18.842-42.598-42.394v0-42.394h-42.803c-46.899 0-84.992-37.888-85.402-84.787v-504.218c0-46.694 38.298-84.787 85.402-84.787h597.402c46.899 0 84.992 37.888 85.402 84.787v504.218c0 46.694-38.298 84.787-85.402 84.787h-42.598v42.394c0 23.552-19.251 42.394-42.598 42.394v0c-23.552 0-42.598-18.842-42.598-42.394v0-42.394h-341.402v42.394c-0.205 23.552-19.251 42.394-42.803 42.394v0zM213.402 530.534h597.402v-334.643c0-23.347-19.046-42.394-42.598-42.394h-512.205c-23.552 0-42.598 18.842-42.803 42.394v0l0.205 334.643z" />
<glyph unicode="&#xe908;" glyph-name="call" d="M884.326 450.458l-79.667 124.928c-14.95 134.758-109.568 247.398-239.616 285.491-26.419 7.782-52.634-13.312-52.634-40.755v-251.494c24.986-14.541 41.984-41.37 41.984-72.499 0-7.373-1.229-14.541-3.072-21.504l105.062-105.062c1.024 0 2.048 0.41 3.277 0.41 34.816 0 63.078-28.262 63.078-63.078s-28.262-63.078-63.078-63.078-63.078 28.262-63.078 63.078v0c0 1.229 0.205 2.253 0.41 3.277l-105.062 105.062c-21.504-5.734-45.056-6.144-75.162 21.094-18.842 16.998-31.949 40.55-30.106 65.741 2.048 27.648 17.818 52.634 41.779 66.56v251.699c0 27.443-26.010 48.538-52.429 40.755-143.77-41.779-242.278-173.466-242.483-322.765 0-210.534 126.157-186.368 126.157-388.71v-31.949c0-46.49 37.683-84.173 84.173-84.173h210.33c46.49 0 84.173 37.683 84.173 84.173v41.984h41.984c69.632 0 126.157 56.525 126.157 126.157v0 83.354l60.006 25.395c19.661 8.192 28.672 30.72 20.48 50.381-0.41 1.843-1.434 3.686-2.662 5.53z" />
<glyph unicode="&#xe909;" glyph-name="chat" d="M180.224 827.29c-45.67 0-82.944-37.274-82.944-82.944v-447.693c0-11.469 9.216-20.685 20.685-20.685 5.53 0 10.65 2.253 14.541 6.144l89.088 89.088h373.35c45.67 0 82.944 37.274 82.944 82.944v290.202c0 45.67-37.274 82.944-82.944 82.944h-414.72zM760.832 620.032v-165.888c0-91.546-74.342-165.888-165.888-165.888v0h-248.832v-41.574c0-45.67 37.274-82.944 82.944-82.944h373.35l89.088-89.088c8.192-8.192 21.299-7.987 29.286 0 3.891 3.891 6.144 9.216 6.144 14.541v447.898c0 45.67-37.274 82.944-82.944 82.944h-83.149z" />
<glyph unicode="&#xe90a;" glyph-name="check-circle" d="M500.736 305.664c-14.95-14.95-39.117-14.95-54.067-0.205 0 0 0 0-0.205 0.205l-153.6 153.6c-14.95 14.95-14.95 39.322 0 54.272s39.322 14.95 54.272 0l126.362-126.362 320.717 320.717c-72.499 79.258-174.899 124.314-282.419 124.314-211.968-0.205-383.795-172.032-383.795-384.205 0-211.968 171.827-384 384-384s384 171.827 384 384c0 72.294-20.48 139.878-55.296 197.632l-339.968-339.968z" />
<glyph unicode="&#xe90b;" glyph-name="clock-circle" d="M512 832c-212.173 0-384-171.827-384-384s171.827-384 384-384 384 171.827 384 384-171.827 384-384 384zM611.328 294.4l-126.362 126.566c-7.168 7.168-11.264 16.998-11.264 27.034v192.102c0 21.299 17.203 38.298 38.502 38.298 21.094 0 38.298-17.203 38.298-38.298v-176.128l115.302-115.302c14.746-15.155 14.541-39.526-0.614-54.272-15.155-14.541-38.912-14.541-53.862 0v0z" />
<glyph unicode="&#xe90c;" glyph-name="close-circle" d="M783.565 719.565c-149.914 149.914-393.011 149.914-543.13 0s-149.914-393.011 0-543.13 393.216-149.914 543.13 0 149.914 393.216 0 543.13zM593.51 312.218l-81.51 81.51-81.51-81.51c-14.95-14.95-39.322-14.95-54.272 0s-14.95 39.322 0 54.272l81.51 81.51-81.51 81.51c-14.95 14.95-14.95 39.322 0 54.272s39.322 14.95 54.272 0l81.51-81.51 81.51 81.51c14.95 14.95 39.322 14.95 54.272 0s14.95-39.322 0-54.272l-81.51-81.51 81.51-81.51c14.95-14.95 14.95-39.322 0-54.272-15.155-14.95-39.322-14.95-54.272 0v0z" />
<glyph unicode="&#xe90d;" glyph-name="collection" d="M512 862.72c-34.816 0-68.198-14.131-92.16-39.526h-73.728c-28.262 0-48.333-26.419-39.322-52.019l18.432-53.043c3.072-8.192 11.059-13.722 19.661-13.517h333.824c8.806-0.205 16.589 5.325 19.661 13.517l18.637 53.043c9.011 25.6-11.059 52.019-39.322 52.019h-73.728c-23.757 25.395-57.139 39.526-91.955 39.526zM346.112 625.766c0 0-248.832-118.989-248.832-394.854 0-32.973 4.301-62.259 12.288-88.269 20.48-65.741 86.016-109.158 158.106-109.158h488.653c71.885 0 137.626 43.622 158.106 109.158 8.602 28.672 12.698 58.368 12.288 88.269 0 275.866-248.832 394.854-248.832 394.854h-331.776zM525.312 557.978h0.205c10.24 0.205 18.637-7.782 19.046-18.022v-34.406c10.035-1.843 58.573-12.288 74.752-69.837 5.939-21.299-11.264-41.984-34.202-41.984-16.384 0-30.925 10.854-34.406 26.010-5.939 26.419-20.89 31.13-28.877 31.13-7.782 0-28.467-1.229-28.467-41.779 0-70.861 130.867-48.742 130.867-164.25 0-83.968-72.294-95.232-85.197-96.666v-29.901c-0.205-10.24-8.806-18.227-18.842-18.022-10.24-0.205-18.637 7.782-19.046 18.022v29.901c-10.035 1.229-68.608 7.578-86.221 72.704-5.734 21.094 11.674 41.37 34.406 41.37v0c16.384 0 31.13-10.445 34.406-25.805 7.782-35.021 31.744-33.178 35.84-33.178 5.53 0 32.973 1.024 32.973 41.165 0 80.282-130.867 44.646-130.867 165.069 0 82.534 71.885 95.437 84.582 97.075v33.382c0.41 10.24 8.806 18.432 19.046 18.022z" />
<glyph unicode="&#xe90e;" glyph-name="config" d="M449.331 862.72c-19.866 0-36.864-14.131-40.755-33.587l-13.926-71.066c-33.792-12.698-65.126-30.72-93.184-53.453l-67.994 23.347c-18.842 6.349-39.526-1.229-49.357-18.432l-62.464-108.339c-9.83-17.203-6.349-39.117 8.602-52.019l54.682-47.514c-3.072-17.613-4.506-35.635-4.71-53.453 0-18.227 1.843-36.045 4.71-53.453l-54.682-47.514c-14.95-13.107-18.637-34.816-8.602-52.019l62.464-108.339c9.83-17.203 30.515-24.986 49.357-18.637l68.198 23.552c27.853-22.733 59.392-40.755 93.184-53.453l13.926-71.066c3.686-19.456 20.685-33.587 40.755-33.587h125.133c19.866 0 36.864 14.131 40.755 33.587l13.926 71.066c33.792 12.698 65.126 30.72 93.184 53.453l68.198-23.552c18.842-6.554 39.526 1.229 49.357 18.432l62.464 108.544c9.83 17.203 6.349 38.912-8.602 52.019l-54.682 47.514c3.072 17.613 4.506 35.635 4.71 53.453 0 18.227-1.843 36.045-4.71 53.453l54.682 47.514c14.95 13.107 18.637 34.816 8.602 52.019l-62.464 108.339c-9.83 17.203-30.515 24.986-49.357 18.637l-68.198-23.552c-27.853 22.733-59.392 40.755-93.184 53.453l-13.926 71.066c-3.686 19.456-20.89 33.587-40.755 33.587h-125.338zM512 613.888c91.546 0 165.888-74.138 165.888-165.888 0-91.546-74.138-165.888-165.888-165.888v0c-91.546 0-165.888 74.342-165.888 165.888s74.342 165.888 165.888 165.888z" />
<glyph unicode="&#xe90f;" glyph-name="credit-card" d="M180.224 779.776c-45.875 0-82.944-37.069-82.944-82.944 0-22.938 18.637-41.574 41.574-41.574h746.496c22.938 0 41.574 18.637 41.574 41.574 0 45.875-37.069 82.944-82.944 82.944h-663.757zM138.854 530.944c-22.938 0-41.574-18.637-41.574-41.574v-290.202c0-45.875 37.069-82.944 82.944-82.944h663.552c45.875 0 82.944 37.069 82.944 82.944v290.202c0 22.938-18.637 41.574-41.574 41.574v0h-746.291z" />
<glyph unicode="&#xe910;" glyph-name="edit" d="M172.646 825.037c-41.574 0-75.366-33.792-75.366-75.366v0-452.403c0-41.574 33.792-75.366 75.366-75.366v0h404.48l-129.434 129.638c-7.168 6.963-11.059 16.589-11.059 26.624v145.408c0 20.89 16.998 37.683 37.683 37.683h145.408c10.035 0 19.661-3.891 26.624-11.059l204.8-204.8v404.275c0 41.574-33.792 75.366-75.366 75.366v0c0 0-603.136 0-603.136 0zM512 485.683v-92.16l237.158-237.158 92.16 92.16-237.158 237.158h-92.16zM873.882 215.962l-92.16-92.16 46.080-46.080c9.011-9.011 23.552-9.011 32.563 0l59.597 59.597c9.011 9.011 9.011 23.552 0 32.563v0l-46.080 46.080z" />
<glyph unicode="&#xe911;" glyph-name="envelope" d="M155.853 804.147c-43.213 0-79.053-35.84-79.053-79.053v-474.726c0-21.914 17.613-39.526 39.526-39.526s39.526 17.613 39.526 39.526v0 474.522h593.51c21.914 0 39.526 17.613 39.526 39.526s-17.613 39.526-39.526 39.526l-593.51 0.205zM314.163 645.837c-35.635-0.205-66.56-23.962-75.981-58.163l352.87-218.726 352.256 220.774c-10.035 33.178-40.55 56.115-75.366 56.115h-553.779zM947.2 513.126l-335.258-210.33c-12.698-7.987-28.877-7.987-41.779 0l-335.053 207.462v-339.354c0-43.622 35.43-79.053 79.053-79.053h553.779c43.622 0 79.053 35.43 79.053 79.053 0 0 0 0 0 0.205v342.016h0.205z" />
<glyph unicode="&#xe912;" glyph-name="exchange" d="M738.714 748.646c-19.661-1.843-34.816-18.432-34.816-38.298v-76.8h-575.898v-76.8h575.898v-76.8c0-21.299 17.203-38.502 38.298-38.502 10.24 0 20.070 4.096 27.238 11.264l115.098 115.098c14.95 14.95 15.155 39.322 0.205 54.272 0 0 0 0-0.205 0.205l-115.098 115.098c-7.987 8.192-19.251 12.288-30.72 11.264zM285.286 454.349c-11.469 1.024-22.733-3.072-30.72-11.059l-115.302-115.302c-14.95-14.95-14.95-39.322 0-54.272v0l115.302-115.302c14.95-14.95 39.322-14.95 54.272 0 7.168 7.168 11.264 16.998 11.264 27.238v76.8h575.898v76.8h-575.898v76.8c0 19.661-15.155 36.25-34.816 38.298v0z" />
<glyph unicode="&#xe913;" glyph-name="file" d="M560.538 862.72h-297.37c-45.67-0.205-82.739-37.274-82.944-82.944v-663.552c0.205-45.67 37.274-82.739 82.944-82.944h497.664c45.67 0.205 82.739 37.274 82.944 82.944v463.258c0 21.914-8.806 43.008-24.371 58.573l-200.294 200.294c-15.36 15.565-36.454 24.371-58.573 24.371v0zM636.314 199.168h-248.627c-22.938 0.614-40.96 19.866-40.346 42.598 0.614 21.914 18.227 39.731 40.346 40.346h248.832c22.938-0.614 40.96-19.866 40.346-42.598-0.819-22.118-18.432-39.731-40.55-40.346v0zM636.314 365.056h-248.627c-22.938 0.614-40.96 19.866-40.346 42.598 0.614 21.914 18.227 39.731 40.346 40.346h248.832c22.938-0.614 40.96-19.866 40.346-42.598-0.819-22.118-18.432-39.731-40.55-40.346v0zM553.574 572.518v227.942l228.147-228.147-228.147 0.205z" />
<glyph unicode="&#xe914;" glyph-name="filter" d="M170.598 832c-23.552 0-42.598-19.046-42.598-42.598s19.046-42.598 42.598-42.598l256-405.299v-234.701c0-23.552 19.046-42.598 42.598-42.598v0h85.402c23.552 0 42.598 19.046 42.598 42.598v0 234.496l256 405.299c23.552 0 42.598 19.046 42.598 42.598s-19.046 42.598-42.598 42.598c0.205 0.205-682.598 0.205-682.598 0.205zM271.36 746.598h481.485l-53.248-85.402h-374.784l-53.453 85.402z" />
<glyph unicode="&#xe915;" glyph-name="financing" d="M512 862.72c-188.621 0-341.606-148.48-341.606-331.776 0-169.165 130.458-308.429 298.803-328.909v-77.619c-28.877 16.384-69.222 33.178-115.098 33.178-53.453 0-100.762-23.552-129.229-41.574-11.469-6.758-15.155-21.299-8.602-32.768 2.048-3.482 5.12-6.554 8.602-8.602 28.672-18.227 75.776-41.574 129.229-41.574 54.067 0 99.533 23.347 127.795 41.574h59.802c28.467-18.227 73.728-41.574 127.795-41.574 53.453 0 100.762 23.552 129.229 41.574 11.469 6.758 15.155 21.299 8.602 32.768-2.048 3.482-5.12 6.554-8.602 8.602-28.672 18.227-75.776 41.574-129.229 41.574-45.875 0-86.221-16.998-115.098-33.178v77.619c168.346 20.48 298.803 159.744 298.803 328.909 0.41 183.296-152.576 331.776-341.197 331.776zM521.216 796.365h0.205c11.878 0 21.504-9.216 21.504-20.685v-39.526c11.674-2.253 69.427-14.95 86.016-86.835 4.096-18.432-7.578-36.864-26.010-40.96-2.458-0.614-5.12-0.819-7.782-0.819h-11.059c-16.794 0.205-31.13 12.083-34.202 28.672-6.758 31.334-24.371 37.274-32.768 37.274-5.734 0-32.154-1.434-32.154-48.128 0-81.51 147.661-56.115 147.661-189.030 0-96.666-81.715-109.568-96.051-111.411v-34.611c-0.205-11.674-9.626-20.89-21.299-20.685v0c-11.674-0.205-21.299 9.011-21.504 20.685v0 34.406c-11.674 1.638-82.33 9.216-99.328 92.774-4.096 20.070 13.107 38.502 34.202 38.502h11.264c16.179 0 30.925-10.65 33.792-26.010 7.987-44.032 36.25-41.779 41.165-41.779 6.349 0 37.069 1.024 37.069 47.309 0 92.365-147.661 51.405-147.661 190.054 0 95.027 80.896 109.773 95.437 111.616v38.502c0 11.264 9.626 20.685 21.504 20.685z" />
<glyph unicode="&#xe916;" glyph-name="foreign" d="M428.032 862.72c-11.264 0-22.118-4.506-30.106-12.493l-60.211-60.211-168.96 48.947-30.106-30.106 108.954-108.749-38.912-38.912-80.896 27.034-30.515-30.515 167.936-167.936 30.515 30.72-26.829 80.896 38.912 38.912 108.749-108.749 30.106 30.106-48.742 168.96 60.211 60.211c16.589 16.589 16.589 43.418 0 60.006-7.987 7.373-18.842 11.878-30.106 11.878zM591.872 853.094c-22.938-1.229-40.346-20.685-39.322-43.622 1.024-18.842 14.746-34.816 33.178-38.502 32.358-7.373 63.488-19.661 92.16-36.454v-162.202c0-22.733 18.637-41.574 41.574-41.574s41.37-18.637 41.37-41.574-18.637-41.37-41.37-41.37h-124.518c-22.938 0-41.37-18.637-41.574-41.574v-82.944c0-45.67 37.274-82.944 82.944-82.944 22.938 0 41.574-18.637 41.574-41.574v-38.502c-48.742-27.648-105.267-44.032-165.888-44.032-28.058 0.205-55.91 3.686-82.944 10.854v30.72c0 45.67-37.274 82.944-82.944 82.944-22.938 0-41.37 18.637-41.37 41.574v0 41.574c0 22.938-18.637 41.37-41.574 41.574h-72.090c-7.168 27.034-10.65 54.886-10.854 82.944 0 22.938-18.637 41.574-41.574 41.574s-41.574-18.637-41.574-41.574c0-228.557 186.163-414.72 414.72-414.72s414.925 185.754 414.925 414.31c0 197.018-137.83 362.086-322.56 404.070-4.096 1.024-8.192 1.229-12.288 1.024z" />
<glyph unicode="&#xe917;" glyph-name="id-card" d="M512 804.147c-21.914 0-39.526-17.818-39.526-39.526v-39.526h79.053v39.526c0 21.709-17.613 39.526-39.526 39.526zM551.526 724.89v-39.526c0-21.914-17.818-39.526-39.526-39.526s-39.526 17.818-39.526 39.526v0 39.526h-316.621c-43.622 0-79.053-35.43-79.053-79.053v0-474.726c0-43.622 35.43-79.053 79.053-79.053v0h712.090c43.622 0 79.053 35.43 79.053 79.053v0 474.726c0 43.622-35.43 79.053-79.053 79.053v0h-316.416zM353.69 566.784c44.851 0 79.053-34.406 79.053-79.053s-34.202-79.053-79.053-79.053-79.053 34.202-79.053 79.053c0 44.646 34.202 79.053 79.053 79.053v0zM630.579 527.258h158.31c21.914-0.614 39.117-18.842 38.502-40.755-0.614-20.89-17.408-37.888-38.502-38.502h-158.31c-21.914 0.614-39.117 18.842-38.502 40.755 0.819 20.89 17.613 37.888 38.502 38.502zM353.69 368.947c86.426 0 158.31-36.045 158.31-87.654v-11.264c0-10.854-8.806-19.661-19.661-19.661h-277.094c-10.854 0-19.661 8.806-19.661 19.661v11.264c-0.205 51.61 71.68 87.654 158.106 87.654v0zM630.579 368.947h158.31c21.914 0 39.526-17.818 39.526-39.526s-17.818-39.526-39.526-39.526h-158.31c-21.914 0-39.526 17.818-39.526 39.526s17.818 39.526 39.526 39.526z" />
<glyph unicode="&#xe918;" glyph-name="inbox" d="M245.35 832c-20.48 0-38.093-14.541-41.984-34.406l-74.547-384.205c-0.614-2.662-0.819-5.53-0.819-8.192v-256c0-46.49 38.707-85.197 85.402-85.197h597.197c46.899 0.41 84.992 38.298 85.402 85.402v256c0 2.662-0.205 5.53-0.819 8.192l-74.547 384c-3.891 20.070-21.504 34.406-41.984 34.406 0 0-533.299 0-533.299 0zM280.576 746.598h462.848l66.355-341.197h-127.181c-18.432 0-34.611-11.674-40.346-29.082l-25.395-76.39c-4.506-13.517-16.998-22.528-31.334-22.528h-147.046c-14.131 0-26.829 9.011-31.334 22.528l-25.395 76.39c-5.734 17.408-22.118 29.286-40.346 29.082h-126.976l66.15 341.197z" />
<glyph unicode="&#xe919;" glyph-name="inbox-config" d="M748.749 862.72c-5.12 0-9.421-3.891-9.83-9.011l-3.072-36.864c-15.565-5.12-29.901-13.312-41.984-24.166l-33.587 15.77c-1.229 0.614-2.662 1.024-4.096 1.024-3.482 0-6.758-1.843-8.602-4.915l-23.757-41.37c-2.458-4.506-1.229-10.035 2.867-12.902l29.901-20.685c-1.638-7.987-2.662-16.384-2.662-24.576 0-8.397 1.024-16.589 2.662-24.576l-29.901-21.094c-4.096-2.867-5.53-8.602-2.867-12.902l23.757-41.37c2.662-4.506 8.192-6.144 12.698-4.096l33.382 15.77c12.083-10.854 26.214-19.046 41.984-24.166l3.072-36.864c0.41-5.12 4.71-9.011 9.83-9.011h47.718c5.12 0 9.421 3.891 9.83 9.011l3.072 36.864c15.565 5.12 29.901 13.312 41.984 24.166l33.382-15.565c1.229-0.614 2.662-1.024 4.096-1.024 3.482 0 6.758 1.843 8.602 4.915l23.757 41.165c2.662 4.506 1.229 10.035-2.867 13.107l-29.901 20.89c1.638 7.987 2.662 16.179 2.662 24.576s-1.024 16.589-2.662 24.576l29.901 20.685c4.301 2.867 5.53 8.602 2.867 13.107l-23.552 41.165c-2.458 4.506-7.987 6.144-12.698 4.096l-33.382-15.77c-12.288 10.854-26.624 19.251-42.189 24.166l-3.072 36.864c-0.41 5.12-4.71 9.011-9.83 9.011h-47.514zM772.506 764.006c32.768 0 59.187-26.624 59.187-59.392s-26.624-59.187-59.392-59.187v0c-32.768 0-59.187 26.624-59.187 59.392 0.205 32.563 26.624 59.187 59.392 59.187zM210.125 744.141c-19.046 0-35.226-13.312-38.707-31.949l-69.427-355.533-0.614-7.373v-236.954c0-43.622 35.226-79.053 78.848-79.053v0h552.96c43.622 0 79.053 35.226 79.053 78.848v0 237.363l-0.819 7.168-16.384 79.462c-4.301 21.299-25.19 35.021-46.49 30.72s-35.021-25.19-30.72-46.49l14.541-71.066h-117.76c-16.998 0-32.154-10.854-37.478-27.034l-23.552-70.656c-4.096-12.493-15.77-20.89-28.877-20.89h-135.987c-13.107 0-24.781 8.397-28.877 20.89l-23.552 70.656c-5.325 16.179-20.48 27.034-37.478 27.034h-117.555l61.44 316.006h253.747c21.914 0 39.526 17.613 39.526 39.526s-17.613 39.526-39.526 39.526l-286.31-0.205z" />
<glyph unicode="&#xe91a;" glyph-name="info-square" d="M221.184 821.76c-45.875 0-82.944-37.069-82.944-82.944v0-580.813c0-45.875 37.274-82.944 82.944-82.944v0h187.597l-0.819-0.614h207.667l-0.819 0.614h188.006c45.875 0 82.944 37.069 82.944 82.944v0 580.813c0 45.875-37.274 82.944-82.944 82.944v0h-581.632zM491.315 655.872h41.574c11.469 0 20.685-9.216 20.685-20.685v-41.574c0-11.469-9.216-20.685-20.685-20.685h-41.574c-11.469 0-20.685 9.216-20.685 20.685v41.574c-0.205 11.264 9.216 20.685 20.685 20.685v0zM512 489.779c22.938 0 41.574-18.637 41.574-41.574v-165.888c-1.024-22.938-20.275-40.755-43.213-39.731-21.709 0.819-38.912 18.227-39.936 39.731v165.888c0 23.142 18.637 41.574 41.574 41.574z" />
<glyph unicode="&#xe91b;" glyph-name="inversion" d="M429.056 862.72c-183.296 0-331.776-148.48-331.776-331.776s148.48-331.776 331.776-331.776 331.776 148.48 331.776 331.776-148.48 331.776-331.776 331.776zM438.067 796.365h0.205c11.469 0 20.685-9.216 20.685-20.685v-39.526c11.469-2.253 67.584-14.95 83.558-86.835 4.301-18.227-7.168-36.659-25.6-40.755-2.458-0.614-4.915-0.819-7.168-0.819h-10.65c-16.589 0-29.901 12.288-33.178 28.672-6.554 31.334-23.552 37.274-31.744 37.274-5.53 0-31.13-1.434-31.13-48.128-0.205-81.51 143.36-56.115 143.36-189.030 0-96.666-79.258-109.568-93.389-111.411v-34.816c0-11.469-9.216-20.685-20.685-20.685s-20.685 9.216-20.685 20.685v34.406c-11.264 1.638-80.077 9.216-96.461 92.774-3.891 20.070 12.698 38.502 33.382 38.502h10.854c15.565 0 30.106-10.65 32.768-26.010 7.782-44.032 35.226-41.779 39.936-41.779 6.144 0 36.045 1.024 36.045 47.309 0 92.365-143.36 51.405-143.36 190.054 0 95.027 78.643 109.773 92.774 111.616v38.502c-0.41 11.264 8.806 20.685 20.48 20.685v0zM839.27 588.902c2.662-19.046 4.506-38.298 4.506-57.958 0-228.966-185.754-414.72-414.72-414.72v0c-19.661 0-39.117 1.843-58.163 4.506 61.030-56.32 140.902-87.45 223.846-87.45 183.296 0 331.776 148.48 331.776 331.776v0c0.205 86.426-33.178 164.864-87.245 223.846z" />
<glyph unicode="&#xe91c;" glyph-name="long-arrow-down" d="M802.202 353.997c0 11.469-4.71 22.733-12.902 30.72l-3.686 3.891c-16.998 16.998-44.646 16.998-61.645 0v0l-168.346-168.346v569.549c-0.819 23.962-20.89 43.008-45.056 42.189-22.938-0.819-41.37-19.251-42.189-42.189v-569.549l-168.346 168.346c-16.998 16.998-44.646 16.998-61.645 0v0l-3.686-3.686c-16.998-16.998-16.998-44.646 0-61.645v0l246.579-246.579c16.998-16.998 44.646-16.998 61.645 0v0l246.579 246.579c7.987 8.192 12.493 19.251 12.698 30.72v0z" />
<glyph unicode="&#xe91d;" glyph-name="long-arrow-left" d="M417.997 157.798c11.469 0 22.733 4.71 30.72 12.902l3.891 3.686c16.998 16.998 16.998 44.646 0 61.645v0l-168.346 168.346h569.549c23.962 0.819 43.008 20.89 42.189 45.056-0.819 22.938-19.251 41.37-42.189 42.189h-569.549l168.346 168.346c16.998 16.998 16.998 44.646 0 61.645v0l-3.686 3.686c-16.998 16.998-44.646 16.998-61.645 0v0l-246.579-246.374c-16.998-16.998-16.998-44.646 0-61.645v0l246.579-246.579c8.192-8.192 19.251-12.698 30.72-12.902v0z" />
<glyph unicode="&#xe91e;" glyph-name="long-arrow-right" d="M606.003 738.202c-11.469 0-22.733-4.71-30.72-12.902l-3.891-3.686c-16.998-16.998-16.998-44.646 0-61.645v0l168.346-168.346h-569.549c-23.962-0.819-43.008-20.89-42.189-45.056 0.819-22.938 19.251-41.37 42.189-42.189h569.549l-168.346-168.346c-16.998-16.998-16.998-44.646 0-61.645v0l3.686-3.686c16.998-16.998 44.646-16.998 61.645 0v0l246.579 246.579c16.998 16.998 16.998 44.646 0 61.645v0l-246.579 246.374c-8.192 8.192-19.251 12.698-30.72 12.902v0z" />
<glyph unicode="&#xe91f;" glyph-name="long-arrow-up" d="M221.798 542.003c0-11.469 4.71-22.733 12.902-30.72l3.686-3.891c16.998-16.998 44.646-16.998 61.645 0v0l168.346 168.346v-569.549c0.819-23.962 20.89-43.008 45.056-42.189 22.938 0.819 41.37 19.251 42.189 42.189v569.549l168.346-168.346c16.998-16.998 44.646-16.998 61.645 0v0l3.686 3.686c16.998 16.998 16.998 44.646 0 61.645v0l-246.374 246.579c-16.998 16.998-44.646 16.998-61.645 0v0l-246.579-246.579c-8.192-8.192-12.698-19.251-12.902-30.72v0z" />
<glyph unicode="&#xe920;" glyph-name="options" d="M512 806.4c-44.032 0-79.667-35.635-79.667-79.667s35.635-79.667 79.667-79.667 79.667 35.635 79.667 79.667-35.635 79.667-79.667 79.667zM512 527.667c-44.032 0-79.667-35.635-79.667-79.667s35.635-79.667 79.667-79.667 79.667 35.635 79.667 79.667-35.635 79.667-79.667 79.667zM512 248.934c-44.032 0-79.667-35.635-79.667-79.667s35.635-79.667 79.667-79.667 79.667 35.635 79.667 79.667-35.635 79.667-79.667 79.667z" />
<glyph unicode="&#xe921;" glyph-name="payment" d="M449.946 806.4c-45.875 0-82.944-37.683-82.944-84.378v-42.189h580.198v42.189c0 46.49-37.069 84.378-82.944 84.378h-414.31zM367.002 595.456v-168.55c0-18.227 5.939-35.021 15.565-48.947l187.802 118.989c36.045 22.733 83.354 14.336 109.158-19.661l30.31-39.322c21.299-27.648 30.925-61.85 29.696-95.437h124.723c45.67 0 82.944 37.683 82.944 84.378v168.55h-580.198zM232.243 591.77c-9.421-0.41-18.432-3.686-26.010-9.011l-93.594-66.15c-22.323-15.974-35.635-41.779-35.635-69.222v-273.408c0-46.694 37.069-84.378 82.944-84.378h231.424c46.694 0.205 90.112 23.757 115.507 62.874l139.264 159.539c15.77 22.323 15.36 52.429-1.434 74.138-18.432 28.672-41.779 33.382-70.246 13.926l-182.272-115.507c-46.899-29.696-107.93 4.71-107.93 61.030v195.789c0.205 27.648-21.914 50.381-49.562 50.586-1.024-0.205-1.843-0.205-2.458-0.205v0z" />
<glyph unicode="&#xe922;" glyph-name="phone" d="M589.21 836.096c-4.301-0.205-8.806-1.024-12.902-2.048l-312.73-83.763c-34.611-9.216-54.886-44.646-45.67-79.258v0l150.733-562.995c9.216-34.611 44.646-55.091 79.258-45.875l312.73 83.968c34.611 9.216 55.091 44.646 45.875 79.258l-150.938 562.79c-7.987 29.696-35.84 49.562-66.355 47.923v0zM598.63 704.205c7.782-1.024 14.131-6.554 15.974-14.131l107.315-400.384c2.867-10.24-3.277-20.89-13.722-23.757v0l-275.251-73.728c-10.24-2.662-20.89 3.277-23.757 13.722v0l-107.315 400.384c-2.867 10.24 3.277 20.89 13.722 23.757v0l275.251 73.728c2.662 0.614 5.325 0.819 7.782 0.41zM829.44 697.446c-21.299 2.867-40.755-11.878-43.827-32.973-0.819-5.12-0.41-10.445 1.024-15.36l63.693-237.978c5.53-20.685 26.829-32.973 47.514-27.443s32.973 26.829 27.443 47.514l-63.693 237.773c-3.891 15.155-16.589 26.419-32.154 28.467zM141.517 513.126c-21.299 2.867-40.96-11.878-43.827-33.178-0.614-5.12-0.41-10.445 1.024-15.36l63.693-237.773c5.53-20.685 26.829-32.973 47.514-27.443s32.973 26.829 27.443 47.514l-63.693 237.978c-4.096 14.95-16.794 26.214-32.154 28.262v0z" />
<glyph unicode="&#xe923;" glyph-name="plus-circle" d="M512 832c-212.173 0-384-171.827-384-384s171.827-384 384-384 384 171.827 384 384-171.827 384-384 384zM627.302 409.498h-76.8v-76.8c0-21.299-17.203-38.298-38.502-38.298-21.094 0-38.298 17.203-38.298 38.298v76.8h-76.8c-21.299 0-38.298 17.203-38.298 38.502 0 21.094 17.203 38.298 38.298 38.298h76.8v76.8c0 21.299 17.203 38.298 38.502 38.298 21.094 0 38.298-17.203 38.298-38.298v-76.8h76.8c21.299 0 38.298-17.203 38.298-38.502 0-21.094-17.203-38.093-38.298-38.298z" />
<glyph unicode="&#xe924;" glyph-name="question-square" d="M384 832c-47.104 0-85.402-38.093-85.402-85.402v-597.402c0-47.104 38.093-85.402 85.402-85.402h426.598c47.104 0 85.402 38.298 85.402 85.402v597.402c0 47.104-38.093 85.402-85.402 85.402h-426.598zM169.984 790.016c-23.552-0.41-42.394-19.661-41.984-43.213v-597.402c0-23.552 19.046-42.598 42.598-42.598s42.598 19.046 42.598 42.598v597.197c0.205 23.552-18.637 43.008-42.189 43.213-0.205 0.205-0.614 0.205-1.024 0.205v0zM597.402 704c106.906 0 170.598-86.835 170.598-170.598 0-77.414-48.742-121.242-84.173-152.986-28.058-25.19-43.827-40.346-43.827-60.211h-85.402c0 58.982 39.936 94.822 72.090 123.699 34.611 31.13 55.91 52.019 55.91 89.498 0 32.973-23.142 85.402-85.402 85.402-41.779 0-66.97-31.744-78.234-57.958-7.168-16.179-21.914-27.443-39.731-27.443h-0.41c-23.552 0-42.598 19.046-42.598 42.598 0 5.734 1.229 11.469 3.482 16.589 23.347 54.682 75.776 111.411 157.696 111.411zM575.898 277.402h42.598c11.878 0 21.299-9.626 21.299-21.299v-42.598c0-11.878-9.421-21.299-21.299-21.299 0 0 0 0-0.205 0h-42.598c-11.878 0-21.299 9.421-21.299 21.299 0 0 0 0 0 0.205v42.598c0.205 11.469 9.83 21.094 21.504 21.094v0z" />
<glyph unicode="&#xe925;" glyph-name="search" d="M388.096 862.72c-160.154 0-290.816-130.662-290.816-290.816s130.662-290.816 290.816-290.816c72.704 0 139.059 27.034 190.054 71.475l17.613-17.613v-53.658l232.038-232.038c23.757-22.118 61.030-20.685 83.149 3.072 20.89 22.528 20.89 57.549 0 80.077l-232.038 231.834h-53.658l-17.613 17.613c46.080 52.634 71.27 120.218 71.475 190.054-0.205 160.154-130.867 290.816-291.021 290.816zM388.096 779.571c114.483 0.41 207.462-92.16 207.667-206.438 0-0.41 0-0.819 0-1.229 0.41-114.483-92.16-207.462-206.438-207.667-0.41 0-0.819 0-1.229 0-114.483-0.41-207.462 92.16-207.667 206.438 0 0.41 0 0.819 0 1.229-0.41 114.483 92.16 207.462 206.438 207.667 0.41 0 0.819 0 1.229 0z" />
<glyph unicode="&#xe926;" glyph-name="user" d="M512 821.76c-91.75 0-166.093-74.342-166.093-166.093s74.342-166.093 166.093-166.093 166.093 74.342 166.093 166.093-74.342 166.093-166.093 166.093zM512 364.851c-124.723 0-373.76-62.669-373.76-186.982v-62.259c0-22.938 18.637-41.574 41.574-41.574h664.576c22.938 0 41.574 18.637 41.574 41.574v62.259c-0.205 124.518-249.242 186.982-373.965 186.982z" />
<glyph unicode="&#xe927;" glyph-name="wallet" d="M262.758 821.76c-68.198 0-124.518-56.32-124.518-124.518v-539.853c0-45.875 37.274-83.149 83.149-83.149h581.427c45.875 0 83.149 37.274 83.149 83.149v415.13c0 45.875-37.274 83.149-83.149 83.149h-540.058c-22.528-0.41-41.165 17.613-41.574 40.141 0 0.41 0 0.819 0 1.229-0.41 22.528 17.613 41.165 40.141 41.574 0.41 0 0.819 0 1.229 0h539.853c22.938 0 41.574 18.637 41.574 41.574s-18.637 41.574-41.574 41.574v0h-539.648zM761.242 406.426c22.938 0 41.574-18.637 41.574-41.574s-18.637-41.574-41.574-41.574-41.574 18.637-41.574 41.574c0 22.938 18.637 41.574 41.574 41.574z" />
<glyph unicode="&#xe928;" glyph-name="check" d="M911.77 678.195l-72.704 72.704c-10.035 10.035-22.118 14.95-36.454 14.95s-26.419-4.915-36.454-14.95l-351.027-351.642-157.286 157.901c-10.035 10.035-22.118 14.95-36.454 14.95s-26.419-4.915-36.454-14.95l-72.704-72.704c-10.035-10.035-14.95-22.118-14.95-36.454s4.915-26.419 14.95-36.454l266.445-266.445c10.035-10.035 22.118-14.95 36.454-14.95s26.419 4.915 36.454 14.95l460.186 460.186c10.035 10.035 14.95 22.118 14.95 36.454s-4.915 26.419-14.95 36.454z" />
<glyph unicode="&#xe929;" glyph-name="chart" d="M843.776 855.347c-45.875 0-82.944-37.069-82.944-82.944 0-13.517 3.277-26.624 9.626-38.707l-70.861-88.678c-26.010 6.963-53.862 0.819-74.547-16.384l-113.050 56.525c0.205 1.434 0.205 2.867 0.205 4.301 0.41 45.875-36.454 83.149-82.33 83.558s-83.149-36.454-83.558-82.33c0-1.843 0-3.686 0.205-5.53l-113.050-56.32c-35.226 29.286-87.45 24.576-116.736-10.445s-24.576-87.45 10.445-116.736c35.226-29.286 87.45-24.576 116.736 10.445 13.312 15.974 20.275 36.659 19.251 57.549l112.845 56.525c30.72-25.6 75.571-25.6 106.291 0l113.050-56.525c-0.205-1.434-0.205-2.867-0.205-4.301 0-45.875 37.069-82.944 82.739-83.149 45.875 0 82.944 37.069 83.149 82.739 0 13.517-3.277 26.829-9.626 38.707l70.861 88.678c44.237-11.878 89.702 14.336 101.581 58.573s-14.336 89.702-58.573 101.581c-7.168 2.048-14.336 2.867-21.504 2.867zM843.776 399.258c-45.875 0-82.944-37.274-82.944-82.944 0-12.493 2.867-24.986 8.397-36.25l-70.861-90.726c-19.866 5.12-40.96 2.662-59.187-6.963l-88.678 70.861c11.878 44.237-14.336 89.702-58.573 101.581-6.963 1.843-14.336 2.867-21.504 2.867-41.574 0-76.595-30.72-82.125-71.885l-144.384-41.165c-29.082 35.43-81.306 40.346-116.736 11.264s-40.346-81.306-11.264-116.736 81.306-40.346 116.736-11.264c16.179 13.312 26.624 32.154 29.491 52.838l144.384 41.37c24.986-30.31 67.789-38.912 102.4-20.685l88.678-70.861c-11.878-44.237 14.336-89.702 58.573-101.581s89.702 14.336 101.581 58.573c5.53 20.48 2.867 42.394-7.168 61.030l69.018 88.474c43.827-13.312 90.112 11.469 103.424 55.296s-11.469 90.112-55.296 103.424c-7.578 2.253-15.77 3.482-23.962 3.482z" />
<glyph unicode="&#xe92a;" glyph-name="power" d="M512.205 862.515c28.672 0 51.814-23.142 51.814-51.814v-310.886c-1.024-28.672-24.986-50.995-53.453-50.176-27.238 0.819-49.152 22.733-50.176 50.176v310.886c-0.205 28.672 23.142 51.814 51.814 51.814zM427.622 41.882c-158.72 31.539-287.13 158.106-320.717 316.621-35.84 163.84 30.31 333.21 168.141 429.056 23.552 16.384 55.91 10.65 72.499-13.107 5.939-8.602 9.216-19.046 9.216-29.491-0.41-17.408-9.216-33.587-23.757-43.418-97.28-68.403-146.842-186.163-127.795-303.514 21.094-134.963 133.734-242.688 269.312-258.662 170.803-20.48 325.837 101.171 346.317 271.77 1.434 12.288 2.253 24.576 2.253 36.864 0 100.966-49.152 195.584-131.891 253.747-14.541 9.626-23.347 25.805-23.757 43.213 0 41.574 46.899 66.97 81.101 43.213 111.411-77.414 177.971-204.39 178.176-340.173 0-256.205-233.677-458.957-499.098-406.118z" />
<glyph unicode="&#xe92b;" glyph-name="schedule" d="M786.432 862.72h-548.864c-50.586 0-91.546-37.069-91.546-82.944v-663.552c0-45.875 40.96-82.944 91.546-82.944h548.864c50.586 0 91.546 37.069 91.546 82.944v663.552c0 45.875-40.96 82.944-91.546 82.944zM536.371 696.832c72.499 0 128-53.862 128-124.518s-55.296-124.314-128-124.314c-72.499 0-128 53.862-128 124.518s55.501 124.314 128 124.314zM721.306 199.168h-369.869c-15.565-0.205-28.262 12.083-28.467 27.648 0 0 0 0 0 0v13.722c0 65.126 107.315 124.518 213.402 124.518s213.402-59.187 213.402-124.518v-13.722c0.205-15.36-12.493-27.648-28.467-27.648v0z" />
<glyph unicode="&#xe92c;" glyph-name="print" d="M304.538 842.035c-22.938 0-41.574-18.637-41.574-41.37v-82.944c0-22.938 18.637-41.37 41.574-41.37h414.72c22.938 0 41.574 18.637 41.574 41.37v0 82.739c0 22.938-18.637 41.37-41.574 41.37 0 0 0 0 0 0h-414.72zM221.594 593.203c-68.608-0.205-124.109-55.706-124.314-124.314v-165.888c0-45.875 37.069-82.944 82.944-82.944 0 0 0 0 0 0h82.944v-82.944c0-45.875 37.069-82.944 82.944-82.944v0h331.776c45.875 0 82.944 37.069 82.944 82.944v0 82.944h82.944c45.875 0 82.944 37.069 82.944 82.944 0 0 0 0 0 0v165.888c-0.205 68.608-55.706 124.109-124.314 124.518 0-0.205-580.608-0.205-580.813-0.205zM802.202 510.259c24.986 0 41.574-16.589 41.574-41.574 0-24.781-16.589-41.574-41.574-41.574-24.781 0-41.574 16.589-41.574 41.574 0.205 24.986 16.794 41.574 41.574 41.574zM366.797 344.371h290.202c11.469 0 20.685-9.216 20.685-20.685v-165.888c0-11.469-9.216-20.685-20.685-20.685h-290.202c-11.469 0-20.685 9.216-20.685 20.685v165.888c0 11.264 9.216 20.685 20.685 20.685 0 0 0 0 0 0z" />
<glyph unicode="&#xe92d;" glyph-name="change" d="M734.618 862.515c-19.456-1.843-34.202-18.022-34.202-37.478v-75.366h-490.086c-41.165 0-75.366-34.202-75.366-75.366v-188.416c-1.024-20.89 15.155-38.502 36.045-39.322 20.89-1.024 38.502 15.155 39.322 36.045 0 1.024 0 2.253 0 3.482v188.621h490.086v-75.366c0-20.89 16.794-37.683 37.683-37.683 10.035 0 19.661 3.891 26.624 11.059l113.050 113.050c14.746 14.746 14.746 38.502 0 53.248 0 0 0 0 0 0l-113.050 113.050c-7.782 7.578-18.842 11.469-30.106 10.445v0zM850.739 448.41c-20.685-0.41-37.478-17.408-37.069-38.093v-188.416h-490.086v75.366c0 20.89-16.794 37.683-37.683 37.683-10.035 0-19.661-3.891-26.624-11.059l-113.050-113.050c-14.746-14.746-14.746-38.502 0-53.248 0 0 0 0 0 0l113.050-113.050c14.746-14.746 38.707-14.746 53.453 0 6.963 7.168 11.059 16.589 11.059 26.624v75.366h490.086c41.165 0 75.366 34.202 75.366 75.366v188.416c0.205 20.89-16.384 37.888-37.274 38.298-0.614-0.205-1.024-0.205-1.229-0.205z" />
<glyph unicode="&#xe92e;" glyph-name="eye" d="M512 727.142c-239.411 0-353.075-205.21-380.518-263.782-4.506-9.83-4.506-21.094 0-30.925 27.648-58.573 141.312-263.782 380.518-263.782 238.592 0 352.256 203.776 380.314 263.168 4.915 10.24 4.915 21.914 0 32.154-28.058 59.597-141.722 263.168-380.314 263.168zM512 622.49c96.461 0 174.49-78.234 174.49-174.49 0-96.461-78.234-174.49-174.49-174.49-96.461 0-174.49 78.234-174.49 174.49s78.029 174.49 174.49 174.49v0zM512 552.653c-57.754 1.434-105.882-44.237-107.315-101.99s44.237-105.882 101.99-107.315c1.843 0 3.686 0 5.325 0 57.754 1.024 103.834 48.742 102.81 106.701-1.024 56.32-46.49 101.581-102.81 102.605v0z" />
<glyph unicode="&#xe92f;" glyph-name="duplicate" d="M320.102 832c-21.299 0-38.502-17.203-38.502-38.502s17.203-38.502 38.502-38.502h499.098v-499.302c0-21.299 17.203-38.502 38.502-38.502s38.502 17.203 38.502 38.502v499.507c0 42.394-34.406 76.8-76.8 76.8 0 0 0 0 0 0h-499.302zM204.8 678.4c-42.394 0-76.8-34.406-76.8-76.8 0 0 0 0 0 0v-460.8c0-42.394 34.406-76.8 76.8-76.8h460.8c42.394 0 76.8 34.406 76.8 76.8 0 0 0 0 0 0v460.8c0 42.394-34.406 76.8-76.8 76.8 0 0 0 0 0 0s-460.8 0-460.8 0zM435.2 524.8c21.299 0 38.502-17.203 38.502-38.502v-76.8h76.8c21.299 0 38.502-17.203 38.502-38.502s-17.203-38.502-38.502-38.502v0h-76.8v-76.8c0-21.299-17.203-38.502-38.502-38.502s-38.298 17.203-38.298 38.502v76.8h-76.8c-21.299 0-38.502 17.203-38.502 38.502s17.203 38.502 38.502 38.502h76.8v76.8c-0.205 21.299 16.998 38.502 38.298 38.502z" />
<glyph unicode="&#xe930;" glyph-name="pencil" d="M781.517 832c-29.286 0-58.573-11.264-80.691-33.587l-47.309-47.309 161.792-161.792 47.309 47.309c44.646 44.646 44.646 116.941 0 161.792-22.323 22.323-51.814 33.587-81.101 33.587zM592.691 690.483l-464.691-464.691v-161.792h161.792l464.691 464.691-161.792 161.792z" />
<glyph unicode="&#xe931;" glyph-name="bell" d="M512 862.72c-34.406 0-62.259-27.853-62.259-62.259v-28.877c-107.315-27.648-186.573-124.723-186.573-240.64v-248.832l-63.693-47.923c-11.878-7.578-19.251-20.89-19.251-35.021 0-22.938 18.637-41.574 41.574-41.574h580.608c22.938 0 41.574 18.637 41.574 41.574 0 14.131-7.168 27.443-19.251 35.021l-63.898 47.923v248.832c0 115.917-79.258 212.992-186.573 240.64v28.877c0 34.406-27.853 62.259-62.259 62.259zM429.056 116.224c0-45.67 37.274-82.944 82.944-82.944s82.944 37.274 82.944 82.944h-165.888z" />
<glyph unicode="&#xe932;" glyph-name="trash" d="M361.267 862.72l-37.683-37.683h-150.938c-20.89 0-37.683-16.794-37.683-37.683s16.794-37.683 37.683-37.683h527.77c20.89 0 37.683 16.794 37.683 37.683s-16.794 37.683-37.683 37.683h-150.733l-37.683 37.683h-150.733zM172.646 674.304v-490.086c0-41.37 33.997-75.366 75.366-75.366h272.179l75.776 75.366h-46.49c-20.89 0-37.683 16.794-37.683 37.683v339.149c0 15.565 9.421 29.082 23.142 34.816 4.506 1.843 9.421 2.867 14.746 2.867 20.89 0 37.683-16.794 37.683-37.683v-217.907c20.89 18.637 47.104 29.286 75.366 29.286 6.554 0 12.902-0.614 19.251-1.843s12.493-2.867 18.432-4.915v308.634h-527.77zM323.584 598.733c20.89 0 37.683-16.794 37.683-37.683v-339.354c0-20.89-16.794-37.683-37.683-37.683-5.12 0-10.24 1.024-14.746 2.867-13.517 5.734-23.142 19.046-23.142 34.816v339.354c0 20.89 16.998 37.683 37.888 37.683zM662.733 297.267c-9.626 0-19.251-3.686-26.624-11.059-14.746-14.746-14.746-38.707 0-53.248l67.584-67.584-67.584-67.584c-14.746-14.746-14.746-38.707 0-53.248 14.746-14.746 38.502-14.746 53.248 0l67.584 67.584 67.584-67.584c14.746-14.746 38.502-14.746 53.248 0s14.746 38.502 0 53.248l-67.584 67.584 67.584 67.584c14.746 14.746 14.746 38.502 0 53.248s-38.502 14.746-53.248 0l-67.584-67.584-67.584 67.584c-7.168 7.373-16.998 11.059-26.624 11.059z" />
<glyph unicode="&#xe933;" glyph-name="save" d="M744.038 797.389c-15.565 15.565-36.659 24.371-58.778 24.371h-463.872c-46.080 0-83.149-37.478-83.149-83.149v-581.427c0-45.875 37.069-83.149 83.149-83.149h581.427c45.67 0 83.149 37.478 83.149 83.149v464.077c0 21.914-8.806 43.213-24.371 58.778l-117.555 117.35zM512 157.389c-69.018 0-124.518 55.706-124.518 124.518s55.706 124.518 124.518 124.518 124.518-55.706 124.518-124.518-55.501-124.518-124.518-124.518zM595.149 572.518h-332.39c-22.938 0-41.574 18.637-41.574 41.574v83.149c0 22.938 18.637 41.574 41.574 41.574h332.186c22.938 0 41.574-18.637 41.574-41.574v-83.149c0-22.938-18.637-41.574-41.37-41.574z" />
<glyph unicode="&#xe934;" glyph-name="building" d="M272.589 883.2c-43.827 0-79.872-45.261-79.872-100.352v-770.048h638.362v770.048c0 55.091-36.045 100.352-79.872 100.352h-478.618zM272.589 816.23h478.822c14.95 0 26.624-14.746 26.624-33.382v-703.078h-212.787v133.939h-106.496v-133.939h-212.787v703.078c0 18.842 11.674 33.382 26.624 33.382zM299.213 749.261v-66.97h106.291v66.97h-106.291zM458.752 749.261v-66.97h106.496v66.97h-106.496zM618.291 749.261v-66.97h106.291v66.97h-106.291zM299.213 615.322v-66.97h106.291v66.97h-106.291zM458.752 615.322v-66.97h106.496v66.97h-106.496zM618.291 615.322v-66.97h106.291v66.97h-106.291zM299.213 481.382v-66.97h106.291v66.97h-106.291zM458.752 481.382v-66.97h106.496v66.97h-106.496zM618.291 481.382v-66.97h106.291v66.97h-106.291zM299.213 347.648v-66.97h106.291v66.97h-106.291zM458.752 347.648v-66.97h106.496v66.97h-106.496zM618.291 347.648v-66.97h106.291v66.97h-106.291zM299.213 213.709v-66.97h106.291v66.97h-106.291zM618.291 213.709v-66.97h106.291v66.97h-106.291z" />
<glyph unicode="&#xe935;" glyph-name="coins" d="M659.661 832c-60.416 0-115.302-10.24-157.901-28.467-21.299-9.011-39.526-20.070-53.453-34.406-14.336-14.541-24.986-33.997-24.986-55.296v-180.838c-18.842 2.048-38.502 3.686-58.982 3.686-60.416 0-115.302-10.24-157.901-28.467-21.299-9.011-39.526-20.070-53.453-34.406-14.336-14.541-24.986-33.997-24.986-55.296v-236.339c0-21.504 10.65-40.755 24.986-55.296 14.131-14.336 32.358-25.395 53.453-34.406 42.394-18.227 97.485-28.467 157.901-28.467s115.302 10.24 157.901 28.467c21.299 9.011 39.526 20.070 53.453 34.406 14.336 14.541 24.986 33.997 24.986 55.296v63.078c18.842-2.253 38.502-3.891 58.982-3.891 60.416 0 115.302 10.24 157.901 28.467 21.299 9.011 39.526 20.070 53.453 34.406 14.336 14.541 24.986 33.997 24.986 55.296v354.304c0 21.504-10.65 40.755-24.986 55.296-14.131 14.336-32.358 25.395-53.453 34.406-42.394 18.227-97.485 28.467-157.901 28.467zM659.661 773.018c53.862 0 102.195-9.626 134.554-23.552 16.179-6.963 28.467-14.95 35.021-21.709 6.554-6.963 7.578-10.854 7.578-13.926s-1.229-6.963-7.578-13.926c-6.758-6.758-18.842-14.746-35.021-21.709-32.358-13.926-80.691-23.552-134.554-23.552s-102.195 9.626-134.554 23.552c-16.179 6.963-28.467 14.95-34.816 21.709-6.758 6.963-7.782 10.854-7.782 13.926s1.229 6.963 7.782 13.926c6.554 6.758 18.637 14.746 34.816 21.709 32.358 13.722 80.896 23.552 134.554 23.552zM482.509 633.958c6.144-3.277 12.493-6.963 19.456-9.83 42.394-18.227 97.485-28.467 157.901-28.467s115.302 10.24 157.901 28.467c6.963 3.072 13.107 6.758 19.456 9.83v-38.298c0-3.072-1.229-6.963-7.578-13.926-6.758-6.758-18.842-14.746-35.021-21.709-32.358-13.926-80.691-23.552-134.554-23.552s-102.195 9.626-134.554 23.552c-16.179 6.963-28.467 14.95-34.816 21.709-6.758 6.963-7.782 10.854-7.782 13.926v38.298zM837.018 515.789v-38.298c0-3.072-1.229-6.963-7.578-13.926-6.758-6.758-18.842-14.746-35.021-21.709-32.358-13.926-80.691-23.552-134.554-23.552-21.094 0-40.755 1.434-59.597 4.096-1.229 19.866-11.059 37.683-24.371 51.2-5.53 5.53-12.288 10.445-18.842 15.155 31.13-7.373 65.741-11.469 103.014-11.469 60.416 0 115.302 10.24 157.901 28.467 6.554 3.072 12.698 6.963 19.046 10.035zM364.339 477.491c53.862 0 102.195-9.626 134.554-23.552 16.179-6.963 28.467-14.95 34.816-21.709 6.758-6.963 7.782-10.854 7.782-13.926s-1.229-6.963-7.782-13.926c-6.554-6.758-18.637-14.746-34.816-21.709-32.358-13.926-80.691-23.552-134.554-23.552s-102.195 9.626-134.554 23.552c-16.179 6.963-28.467 14.95-34.816 21.709-6.758 6.963-7.782 10.854-7.782 13.926s1.229 6.963 7.782 13.926c6.554 6.758 18.637 14.746 34.816 21.709 32.358 13.926 80.691 23.552 134.554 23.552zM837.018 397.619v-38.298c0-3.072-1.229-6.963-7.578-13.926-6.758-6.758-18.842-14.746-35.021-21.709-32.358-13.926-80.691-23.552-134.554-23.552-20.685 0-40.55 1.434-58.982 3.891v58.982c18.842-2.253 38.502-3.891 58.982-3.891 60.416 0 115.302 10.24 157.901 28.467 6.758 3.277 12.902 6.963 19.251 10.035zM186.982 338.637c6.144-3.277 12.493-6.963 19.456-9.83 42.394-18.227 97.485-28.467 157.901-28.467s115.302 10.24 157.901 28.467c6.963 3.072 13.107 6.758 19.456 9.83v-38.298c0-3.072-1.229-6.963-7.782-13.926-6.554-6.758-18.637-14.746-34.816-21.709-32.358-13.926-80.691-23.552-134.554-23.552s-102.195 9.626-134.554 23.552c-16.179 6.963-28.467 14.95-34.816 21.709-6.758 6.963-7.782 10.854-7.782 13.926v38.298zM186.982 220.672c6.144-3.482 12.493-7.168 19.456-10.24 42.394-18.227 97.485-28.467 157.901-28.467s115.302 10.24 157.901 28.467c6.963 3.072 13.107 6.758 19.456 10.24v-38.502c0-3.072-1.229-6.963-7.782-13.926-6.554-6.758-18.637-14.746-34.816-21.709-32.358-13.926-80.691-23.552-134.554-23.552s-102.195 9.626-134.554 23.552c-16.179 6.963-28.467 14.95-34.816 21.709-6.758 6.963-7.782 10.854-7.782 13.926v38.502z" />
<glyph unicode="&#xe936;" glyph-name="money-bag" d="M512 832c-88.678 0-172.646-31.334-172.646-31.334l-32.358-11.674 83.149-151.142c-26.214-13.107-65.946-34.816-114.483-74.342-72.090-58.163-147.661-146.637-147.661-263.168 0-88.883 38.298-155.034 106.086-190.874 67.584-35.635 159.949-45.466 277.914-45.466s210.33 9.83 277.914 45.466c67.789 35.84 106.086 101.99 106.086 190.874 0 116.326-73.523 204.595-143.565 262.758-14.746 12.288-29.286 22.528-43.418 32.563h186.982v59.187h-247.603l67.379 134.554-31.13 11.264c0 0-83.968 31.334-172.646 31.334zM512 773.018c57.958 0 94.822-14.336 118.579-21.709l-48.128-96.461h-134.144l-53.248 96.87c24.371 7.373 60.006 21.299 116.941 21.299zM438.682 595.661h154.214c3.686-1.638 60.826-27.238 122.061-78.029 62.669-52.429 122.061-126.362 122.061-217.293 0-74.138-23.142-111.206-74.547-138.445-51.2-27.034-136.192-38.707-250.47-38.707s-199.066 11.674-250.675 38.707c-51.2 27.238-74.342 64.307-74.342 138.445 0 90.522 60.826 164.454 125.542 217.088 63.078 50.995 122.266 76.595 126.157 78.234zM482.509 536.678v-58.982h-29.491c-48.742 0-88.678-39.936-88.678-88.678s39.936-88.678 88.678-88.678h118.17c16.589 0 29.491-12.902 29.491-29.491s-12.902-29.491-29.491-29.491h-206.848v-58.982h118.17v-29.491h58.982v29.491h29.491c48.742 0 88.678 39.936 88.678 88.678s-39.936 88.678-88.678 88.678h-118.17c-16.589 0-29.491 12.902-29.491 29.491s12.902 29.491 29.491 29.491h147.661v58.982h-58.982v58.982h-58.982z" />
<glyph unicode="&#xe937;" glyph-name="module" d="M128 793.498v-307.2h192.102v307.2c0 0-192.102 0-192.102 0zM396.902 793.498v-307.2h230.4v307.2c0 0-230.4 0-230.4 0zM704.102 793.498v-307.2h192.102v307.2h-192.102zM128 409.498v-307.2h192.102v307.2h-192.102zM396.902 409.498v-307.2h230.4v307.2h-230.4zM704.102 409.498v-307.2h192.102v307.2h-192.102z" />
<glyph unicode="&#xe938;" glyph-name="play" d="M275.866 726.938v-557.67c0-42.394 46.899-68.198 82.739-45.466l438.067 278.733c33.178 21.094 33.178 69.632 0 90.931l-438.067 278.733c-35.84 22.938-82.739-2.867-82.739-45.261z" />
<glyph unicode="&#xe939;" glyph-name="minus-circle" d="M512 832c-212.173 0-384-171.827-384-384s171.827-384 384-384 384 171.827 384 384-171.827 384-384 384zM665.6 448c0-21.504-17.408-38.912-38.912-38.912h-229.376c-21.504 0-38.912 17.408-38.912 38.912v0c0 21.504 17.408 38.912 38.912 38.912h229.376c21.504 0 38.912-17.408 38.912-38.912v0z" />
<glyph unicode="&#xe93a;" glyph-name="dot" d="M819.2 448c0-169.662-137.538-307.2-307.2-307.2s-307.2 137.538-307.2 307.2c0 169.662 137.538 307.2 307.2 307.2s307.2-137.538 307.2-307.2z" />
<glyph unicode="&#xe93b;" glyph-name="share" d="M889.242 608.358c9.011-9.421 9.011-23.962 0-33.178l-207.872-215.654c-6.758-6.963-17.203-9.216-26.214-5.53s-14.95 12.493-14.95 22.118v103.834h-38.093c-100.557 0-191.078-55.706-236.134-145.613-4.096-8.397-12.902-13.722-21.914-13.722-1.843 0-3.482 0.205-5.325 0.614-10.854 2.458-18.637 11.878-18.637 22.938v47.923c0 171.622 139.878 311.296 311.91 311.296h7.987v103.834c0 9.83 5.939 18.637 14.95 22.323s19.456 1.434 26.214-5.53l208.077-215.654zM799.949 64.819h-575.898c-52.838 0-96.051 43.008-96.051 95.846v447.078c0 52.838 43.008 95.846 96.051 95.846h96.051c17.613 0 31.949-14.336 31.949-31.949s-14.336-31.949-31.949-31.949h-96.051c-17.613 0-31.949-14.336-31.949-31.949v-447.078c0-17.613 14.336-31.949 31.949-31.949h575.898c17.613 0 31.949 14.336 31.949 31.949v255.386c0 17.613 14.336 31.949 31.949 31.949s31.949-14.336 31.949-31.949v-255.59c0.205-52.634-42.803-95.642-95.846-95.642z" />
<glyph unicode="&#xe93c;" glyph-name="facebook" d="M575.898 590.95v71.475c0 10.65 0.41 19.046 1.434 24.986s3.277 11.674 6.758 17.408c3.482 5.734 9.216 9.626 17.203 11.878s18.432 3.277 31.539 3.277h71.475v142.746h-114.278c-66.15 0-113.664-15.77-142.541-47.104s-43.213-77.619-43.213-138.65v-86.016h-85.606v-142.95h85.606v-414.72h171.622v414.72h114.278l15.155 142.95h-129.434z" />
<glyph unicode="&#xe93d;" glyph-name="linkedin" d="M299.827 94.106h-167.322v463.872h167.117v-463.872h0.205zM213.197 642.765c-51.2 0-85.197 34.202-85.197 79.462 0 45.466 33.997 79.462 90.726 79.462 50.995 0 85.197-33.997 85.197-79.462 0-45.261-33.997-79.462-90.726-79.462zM896 94.106h-161.792v253.542c0 70.246-43.008 86.221-59.392 86.221-16.179 0-70.246-10.854-70.246-86.221v-253.542h-167.117v463.872h167.117v-64.717c21.504 37.683 64.717 64.717 145.613 64.717s145.613-64.717 145.613-210.33c0.205 0 0.205-253.542 0.205-253.542z" />
<glyph unicode="&#xe93e;" glyph-name="youtube" d="M297.165 862.72l57.139-188.006v-122.061h47.514v128.614l56.32 181.453h-48.742l-30.31-124.109h-2.253l-31.334 124.109h-48.333zM519.578 787.149c-19.251 0-35.021-5.734-46.49-16.179s-17.203-24.371-17.203-42.189v-118.784c0-19.456 6.144-35.021 17.203-46.49 11.264-11.469 25.6-17.203 44.237-17.203 19.251 0 34.202 6.144 45.466 17.203 10.854 11.264 16.179 25.805 16.179 45.261v118.784c0 17.408-4.915 32.154-16.179 43.213-11.264 11.264-25.6 16.384-43.213 16.384v0zM615.629 781.619v-192.307c0-13.722 2.662-23.552 7.578-30.31s12.902-9.626 22.733-9.626c8.397-0.205 16.589 2.048 23.757 6.349 9.421 5.734 17.818 12.902 24.781 21.504v-24.781h42.189v229.376h-42.189v-173.875c-3.686-4.915-7.987-9.421-12.902-12.902-3.482-2.662-7.578-4.096-11.878-4.301-3.891 0-6.963 0.819-8.602 3.277-2.253 3.482-3.482 7.782-3.277 11.878v175.718c0 0-42.189 0-42.189 0zM517.325 747.213c5.734 0 10.65-1.229 14.131-4.301s4.301-6.963 4.301-11.878v-125.338c0-6.144-0.819-10.65-4.301-13.926-3.686-3.686-8.806-5.53-14.131-5.325-4.915-0.205-9.626 1.843-12.902 5.325-3.072 3.482-4.301 7.782-4.301 14.131v125.338c0 4.915 1.024 8.806 4.301 11.878 3.277 2.867 7.782 3.891 12.902 4.096v0zM512 498.79c-82.125 0-162.202-1.024-240.845-4.301-54.886 0-100.352-45.056-100.352-99.328-3.277-43.008-4.506-86.426-4.301-129.638-0.205-43.008 0.819-85.402 4.301-128.614 0-54.477 45.261-99.328 100.352-99.328 78.643-3.277 158.72-4.506 240.845-4.301 82.125-0.205 162.202 1.024 240.845 4.301 55.091 0 100.352 44.851 100.352 99.328 3.277 43.213 4.506 85.402 4.301 128.614 0.205 43.213-1.024 86.63-4.301 129.638 0 54.477-45.261 99.328-100.352 99.328-80.282 3.072-160.563 4.506-240.845 4.301v0zM220.365 427.52h144.589c2.253 0.205 4.301-1.638 4.301-3.891 0-0.205 0-0.205 0-0.41v-44.237c0.205-2.253-1.638-4.301-3.891-4.301-0.205 0-0.205 0-0.41 0h-44.237v-257.024c0.205-2.253-1.638-4.301-3.891-4.301-0.205 0-0.205 0-0.41 0h-47.514c-2.662 0-5.53 1.843-5.53 4.301v256.819h-43.213c-2.662 0-5.325 1.843-5.325 4.301v44.237c0.205 2.662 3.072 4.506 5.53 4.506zM524.902 427.52h41.984c2.662 0 5.53-1.843 5.53-4.301v-86.426c3.482 3.277 6.963 5.325 10.854 7.578 6.554 3.891 13.926 6.144 21.709 6.349 14.746 0 25.395-5.325 33.382-16.179 7.578-10.65 11.878-26.010 11.878-45.261v-125.338c0-16.998-3.482-30.515-10.854-39.936-7.578-9.626-18.432-14.131-32.358-14.131-8.806 0-16.589 1.843-23.757 5.325-3.891 2.048-7.578 4.71-10.854 7.578v-5.325c0-2.662-2.867-4.301-5.53-4.301h-42.189c-2.253 0-4.301 1.638-4.301 4.096 0 0.205 0 0.205 0 0.41v305.562c-0.205 2.253 1.638 4.301 3.891 4.301 0.41 0 0.614 0 0.614 0v0zM740.966 353.997c20.48 0 36.25-6.963 47.514-19.456 11.059-12.288 17.203-29.286 17.203-51.814v-58.368c0-2.458-2.867-4.301-5.325-4.301h-75.571v-37.683c0-13.722 1.638-19.046 3.277-21.709 1.229-2.048 4.096-5.325 10.854-5.325 5.325 0 8.806 1.843 10.854 4.301 1.024 1.434 3.277 6.144 3.277 22.733v16.179c-0.205 2.253 1.638 4.301 3.891 4.301 0.205 0 0.205 0 0.41 0h43.213c2.253 0.205 4.301-1.638 4.301-3.891 0-0.205 0-0.205 0-0.41v-17.203c0-24.371-5.12-42.598-16.179-55.091-11.264-12.698-28.467-19.456-50.79-19.456-20.070 0-36.864 6.963-48.538 20.48-11.469 13.312-17.203 31.13-17.203 54.067v101.581c0 20.685 6.758 37.478 19.456 50.79s30.72 20.685 49.357 20.275zM364.134 347.648h42.189c2.662 0 5.325-1.843 5.325-4.301v-172.851c0-5.734 0.41-7.782 1.024-8.602 0.205-0.41 0.819-2.253 4.301-2.253 1.229 0 4.71 1.024 9.626 4.301 4.096 2.662 7.578 5.734 10.854 9.626v169.574c-0.205 2.253 1.638 4.301 3.891 4.301 0.205 0 0.205 0 0.41 0h42.189c2.253 0 4.301-1.638 4.301-4.096 0-0.205 0-0.205 0-0.41v-225.69h1.024c0-2.662-2.867-4.301-5.325-4.301h-42.189c-2.253-0.205-4.301 1.638-4.301 3.891 0 0.205 0 0.205 0 0.41v13.312c-5.12-5.12-11.059-9.421-17.203-12.902-9.216-5.325-18.022-7.578-27.034-7.578-11.264 0-19.046 3.891-24.781 11.878-5.53 7.578-8.602 18.022-8.602 32.358v189.030c-0.205 2.253 1.638 4.301 3.891 4.301 0 0 0.205 0 0.41 0v0zM587.571 305.459c-3.482 0.41-6.758-0.41-9.626-2.253-2.048-1.024-3.482-2.253-5.325-4.301v-137.216c2.458-2.662 4.096-4.096 6.349-5.325 2.662-1.229 5.734-1.024 8.602-1.024 5.325 0 6.963 1.434 7.578 2.253 1.434 1.638 2.253 5.325 2.253 12.902v116.736c0 6.349-0.819 10.854-3.277 13.926-1.638 2.253-3.891 3.686-6.554 4.301zM738.714 304.435c-4.915 0-8.806-1.434-10.65-4.301-1.434-2.048-3.277-6.758-3.277-17.203v-18.432h28.058v18.432c0 10.445-2.662 14.95-4.301 17.203-1.843 2.662-4.915 4.301-9.83 4.301v0z" />
<glyph unicode="&#xe93f;" glyph-name="twitter" d="M925.901 704.819c-31.13-13.722-64.102-22.733-97.894-26.829 35.635 21.299 62.259 54.682 74.957 94.208-33.382-19.866-70.042-33.792-108.134-41.165-64.102 68.608-171.827 72.294-240.435 8.192-44.646-41.574-63.488-104.038-49.357-163.43-136.806 6.963-264.397 71.475-350.822 177.766-45.261-77.824-22.118-177.357 52.634-227.328-27.034 0.819-53.453 8.192-77.21 21.299v-2.048c0-81.101 57.139-150.733 136.397-166.912-24.986-6.758-51.405-7.782-76.8-2.867 22.323-69.427 86.221-116.941 158.925-118.374-71.27-55.91-161.997-81.306-251.904-70.451 77.824-49.971 168.346-76.595 260.915-76.39 312.934 0 484.147 259.277 484.147 484.147 0 7.373-0.205 14.746-0.41 22.118 33.382 24.166 62.054 54.067 84.992 88.064z" />
<glyph unicode="&#xe940;" glyph-name="bag" d="M180.224 283.136h663.552v-124.314h-663.552v124.314zM180.224 656.282h663.552v-290.202h-82.944c0 22.938-18.637 41.574-41.37 41.574-22.938 0-41.574-18.637-41.574-41.574h-331.776c0 22.938-18.637 41.574-41.574 41.574s-41.37-18.637-41.37-41.574h-82.944v290.202zM348.16 820.326v-80.896h-167.936c-45.875 0-82.944-37.069-82.944-82.944v-497.664c0-45.67 37.274-82.944 82.944-82.944h663.552c45.67 0 82.944 37.274 82.944 82.944v497.664c0 45.875-37.069 82.944-82.944 82.944h-167.936v80.896h-327.68z" />
<glyph unicode="&#xe941;" glyph-name="info-circle" d="M512 832c-212.173 0-384-171.827-384-384s171.827-384 384-384 384 171.827 384 384-171.827 384-384 384zM515.482 221.082h-6.963c-19.251 0-34.816 15.565-34.816 34.816v209.51c0 19.251 15.565 34.816 34.816 34.816h6.963c19.251 0 34.816-15.565 34.816-34.816v-209.51c0.205-19.251-15.565-34.816-34.816-34.816zM512 563.098c-21.299 0-38.502 17.203-38.502 38.298 0 21.299 17.203 38.502 38.298 38.502 0 0 0 0 0 0 21.299 0 38.298-17.203 38.298-38.502 0.205-21.094-16.998-38.093-38.093-38.298z" />
<glyph unicode="&#xe942;" glyph-name="error-circle" d="M794.214 707.686c10.854-12.083 18.842-21.504 23.757-28.058 5.325-7.168 12.902-18.432 22.733-33.997 36.045-59.597 55.296-128 55.296-197.632 0-212.173-171.827-384-384-384-211.968 0-384 172.032-384 384s171.827 384 384 384c111.821 0 212.173-48.128 282.214-124.314zM512 494.49l-137.011 137.011c-13.926 13.517-36.25 13.107-49.766-0.819-13.107-13.722-13.107-35.226 0-48.947l136.806-136.806-137.011-137.011c-13.517-13.926-13.107-36.25 0.819-49.766 13.722-13.107 35.226-13.107 48.947 0l136.806 136.806 136.806-137.011c13.722-13.722 36.045-13.722 49.766 0s13.722 36.045 0 49.766v0l-136.806 136.806 137.011 137.011c13.926 13.517 14.336 35.84 0.819 49.766s-35.84 14.336-49.766 0.819c-0.205-0.205-0.614-0.614-0.819-0.819l-136.602-136.806z" />
</font>
</defs>
</svg>
